<?xml version="1.0" encoding="UTF-8" standalone="no"?>
<!-- Created with Inkscape (http://www.inkscape.org/) -->

<svg
   xmlns:dc="http://purl.org/dc/elements/1.1/"
   xmlns:cc="http://creativecommons.org/ns#"
   xmlns:rdf="http://www.w3.org/1999/02/22-rdf-syntax-ns#"
   xmlns:svg="http://www.w3.org/2000/svg"
   xmlns="http://www.w3.org/2000/svg"
   xmlns:sodipodi="http://sodipodi.sourceforge.net/DTD/sodipodi-0.dtd"
   xmlns:inkscape="http://www.inkscape.org/namespaces/inkscape"
   width="352"
   height="272"
   id="svg2"
   version="1.1"
   inkscape:version="0.48.5 r10040"
   sodipodi:docname="rex.svg">
  <defs
     id="defs4" />
  <sodipodi:namedview
     id="base"
     pagecolor="#ffffff"
     bordercolor="#666666"
     borderopacity="1.0"
     inkscape:pageopacity="0.0"
     inkscape:pageshadow="2"
     inkscape:zoom="2.8"
     inkscape:cx="101.10178"
     inkscape:cy="177.2934"
     inkscape:document-units="px"
     inkscape:current-layer="layer1"
     showgrid="true"
     fit-margin-top="0"
     fit-margin-left="0"
     fit-margin-right="0"
     fit-margin-bottom="0"
     inkscape:window-width="1280"
     inkscape:window-height="751"
     inkscape:window-x="0"
     inkscape:window-y="0"
     inkscape:window-maximized="1">
    <inkscape:grid
       type="xygrid"
       id="grid2985"
       empspacing="16"
       visible="true"
       enabled="true"
       snapvisiblegridlinesonly="true"
       originx="0px"
       originy="0px" />
  </sodipodi:namedview>
  <metadata
     id="metadata7">
    <rdf:RDF>
      <cc:Work
         rdf:about="">
        <dc:format>image/svg+xml</dc:format>
        <dc:type
           rdf:resource="http://purl.org/dc/dcmitype/StillImage" />
        <dc:title></dc:title>
      </cc:Work>
    </rdf:RDF>
  </metadata>
  <g
     inkscape:label="Layer 1"
     inkscape:groupmode="layer"
     id="layer1"
     transform="translate(0,-780.36218)">
    <path
       style="fill:#ff8b08;fill-opacity:1;stroke:#000000;stroke-opacity:1"
       d="m 95.72534,876.67483 c -5.34854,14.71251 -13.23616,28.19161 -23.09375,39.96875 9.83862,11.78285 17.71606,25.26465 23.0625,39.96875 l 0.0312,0.031 z"
       id="path3812"
       inkscape:connector-curvature="0"
       sodipodi:nodetypes="ccccc" />
    <path
       inkscape:connector-curvature="0"
       style="fill:#ff8b08;fill-opacity:1;stroke:#000000;stroke-opacity:1"
       d="m 95.68767,876.63711 c -14.71212,5.34937 -28.21065,13.21701 -40,23.0625 6.12293,5.12287 11.78735,10.77918 16.90625,16.90625 9.85758,-11.77714 17.74522,-25.25621 23.09375,-39.96875 z"
       id="w5" />
    <path
       style="fill:#ff8b08;fill-opacity:1;stroke:#000000;stroke-opacity:1"
       d="m 55.69408,899.73733 c -6.12238,5.11553 -11.75496,10.78874 -16.875,16.90625 5.11528,6.12274 10.75705,11.78624 16.875,16.90625 6.13048,-5.12482 11.80952,-10.7772 16.9375,-16.90625 -5.12357,-6.13605 -10.81175,-11.77301 -16.9375,-16.90625 z"
       id="c1"
       inkscape:connector-curvature="0" />
    <path
       sodipodi:nodetypes="ccccc"
       inkscape:connector-curvature="0"
       id="path3886"
       d="M 95.9375,956.39343 C 81.22499,951.04489 67.74589,943.15727 55.96875,933.29968 44.1859,943.1383 30.7041,951.01574 16,956.36218 l -0.031,0.0312 z"
       style="fill:#ff8b08;fill-opacity:1;stroke:#000000;stroke-opacity:1" />
    <path
       inkscape:connector-curvature="0"
       id="path3888"
       d="m 95.97522,956.35576 c -5.34937,-14.71212 -13.21701,-28.21065 -23.0625,-40 -5.12287,6.12293 -10.77918,11.78735 -16.90625,16.90625 11.77714,9.85758 25.25621,17.74522 39.96875,23.09375 z"
       style="fill:#ff8b08;fill-opacity:1;stroke:#000000;stroke-opacity:1" />
    <path
       style="fill:#ff8b08;fill-opacity:1;stroke:#000000;stroke-opacity:1"
       d="m 16.2189,956.60559 c 5.34854,-14.71251 13.23616,-28.19161 23.09375,-39.96875 -9.83862,-11.78285 -17.71606,-25.26465 -23.0625,-39.96875 l -0.0312,-0.031 z"
       id="path3894"
       inkscape:connector-curvature="0"
       sodipodi:nodetypes="ccccc" />
    <path
       style="fill:#ff8b08;fill-opacity:1;stroke:#000000;stroke-opacity:1"
       d="m 16.25657,956.64331 c 14.71212,-5.34937 28.21065,-13.21701 40,-23.0625 -6.12293,-5.12287 -11.78735,-10.77918 -16.90625,-16.90625 -9.85758,11.77714 -17.74522,25.25621 -23.09375,39.96875 z"
       id="path3896"
       inkscape:connector-curvature="0" />
    <path
       sodipodi:nodetypes="ccccc"
       inkscape:connector-curvature="0"
       id="e30"
       d="m 16.00672,876.88699 c 14.71251,5.34854 28.19161,13.23616 39.96875,23.09375 11.78285,-9.83862 25.26465,-17.71606 39.96875,-23.0625 l 0.031,-0.0312 z"
       style="fill:#ff8b08;fill-opacity:1;stroke:#000000;stroke-opacity:1" />
    <path
       inkscape:connector-curvature="0"
       id="w4"
       d="m 15.969,876.92466 c 5.34937,14.71212 13.21701,28.21065 23.0625,40 5.12287,-6.12293 10.77918,-11.78735 16.90625,-16.90625 C 44.16061,890.16083 30.68154,882.27319 15.969,876.92466 z"
       style="fill:#ff8b08;fill-opacity:1;stroke:#000000;stroke-opacity:1" />
    <path
       sodipodi:nodetypes="ccccc"
       inkscape:connector-curvature="0"
       id="path3918"
       d="m 175.46877,876.3937 c -5.34854,14.71251 -13.23616,28.19161 -23.09375,39.96875 9.83862,11.78285 17.71606,25.26465 23.0625,39.96875 l 0.0312,0.031 z"
       style="fill:#00cb00;fill-opacity:1;stroke:#000000;stroke-opacity:1" />
    <path
       id="path3920"
       d="m 175.4311,876.35598 c -14.71212,5.34937 -28.21065,13.21701 -40,23.0625 6.12293,5.12287 11.78735,10.77918 16.90625,16.90625 9.85758,-11.77714 17.74522,-25.25621 23.09375,-39.96875 z"
       style="fill:#00cb00;fill-opacity:1;stroke:#000000;stroke-opacity:1"
       inkscape:connector-curvature="0" />
    <path
       inkscape:connector-curvature="0"
       id="path3922"
       d="m 135.43751,899.4562 c -6.12238,5.11553 -11.75496,10.78874 -16.875,16.90625 5.11528,6.12274 10.75705,11.78624 16.875,16.90625 6.13048,-5.12482 11.80952,-10.7772 16.9375,-16.90625 -5.12357,-6.13605 -10.81175,-11.77301 -16.9375,-16.90625 z"
       style="fill:#00cb00;fill-opacity:1;stroke:#000000;stroke-opacity:1" />
    <path
       style="fill:#00cb00;fill-opacity:1;stroke:#000000;stroke-opacity:1"
       d="m 175.68093,956.1123 c -14.71251,-5.34854 -28.19161,-13.23616 -39.96875,-23.09375 -11.78285,9.83862 -25.26465,17.71606 -39.96875,23.0625 l -0.031,0.0312 z"
       id="path3924"
       inkscape:connector-curvature="0"
       sodipodi:nodetypes="ccccc" />
    <path
       style="fill:#00cb00;fill-opacity:1;stroke:#000000;stroke-opacity:1"
       d="m 175.71865,956.07463 c -5.34937,-14.71212 -13.21701,-28.21065 -23.0625,-40 -5.12287,6.12293 -10.77918,11.78735 -16.90625,16.90625 11.77714,9.85758 25.25621,17.74522 39.96875,23.09375 z"
       id="path3926"
       inkscape:connector-curvature="0" />
    <path
       sodipodi:nodetypes="ccccc"
       inkscape:connector-curvature="0"
       id="path3928"
       d="m 95.96233,956.32446 c 5.34854,-14.71251 13.23616,-28.19161 23.09375,-39.96875 -9.83862,-11.78285 -17.71606,-25.26465 -23.0625,-39.96875 l -0.0312,-0.031 z"
       style="fill:#00cb00;fill-opacity:1;stroke:#000000;stroke-opacity:1" />
    <path
       inkscape:connector-curvature="0"
       id="path3930"
       d="m 96,956.36218 c 14.71212,-5.34937 28.21065,-13.21701 40,-23.0625 -6.12293,-5.12287 -11.78735,-10.77918 -16.90625,-16.90625 C 109.23617,928.17057 101.34853,941.64964 96,956.36218 z"
       style="fill:#00cb00;fill-opacity:1;stroke:#000000;stroke-opacity:1" />
    <path
       style="fill:#00cb00;fill-opacity:1;stroke:#000000;stroke-opacity:1"
       d="m 95.75015,876.60586 c 14.71251,5.34854 28.19161,13.23616 39.96875,23.09375 11.78285,-9.83862 25.26465,-17.71606 39.96875,-23.0625 l 0.031,-0.0312 z"
       id="path3932"
       inkscape:connector-curvature="0"
       sodipodi:nodetypes="ccccc" />
    <path
       style="fill:#00cb00;fill-opacity:1;stroke:#000000;stroke-opacity:1"
       d="m 95.71243,876.64353 c 5.34937,14.71212 13.21701,28.21065 23.0625,40 5.12287,-6.12293 10.77918,-11.78735 16.90625,-16.90625 -11.77714,-9.85758 -25.25621,-17.74522 -39.96875,-23.09375 z"
       id="path3934"
       inkscape:connector-curvature="0" />
    <path
       style="fill:#00cb00;fill-opacity:1;stroke:#000000;stroke-opacity:1"
       d="m 175.46877,876.3937 c -5.34854,14.71251 -13.23616,28.19161 -23.09375,39.96875 9.83862,11.78285 17.71606,25.26465 23.0625,39.96875 l 0.0312,0.031 z"
       id="path3936"
       inkscape:connector-curvature="0"
       sodipodi:nodetypes="ccccc" />
    <path
       inkscape:connector-curvature="0"
       style="fill:#00cb00;fill-opacity:1;stroke:#000000;stroke-opacity:1"
       d="m 175.4311,876.35598 c -14.71212,5.34937 -28.21065,13.21701 -40,23.0625 6.12293,5.12287 11.78735,10.77918 16.90625,16.90625 9.85758,-11.77714 17.74522,-25.25621 23.09375,-39.96875 z"
       id="path3938" />
    <path
       style="fill:#00cb00;fill-opacity:1;stroke:#000000;stroke-opacity:1"
       d="m 135.43751,899.4562 c -6.12238,5.11553 -11.75496,10.78874 -16.875,16.90625 5.11528,6.12274 10.75705,11.78624 16.875,16.90625 6.13048,-5.12482 11.80952,-10.7772 16.9375,-16.90625 -5.12357,-6.13605 -10.81175,-11.77301 -16.9375,-16.90625 z"
       id="c2"
       inkscape:connector-curvature="0" />
    <path
       sodipodi:nodetypes="ccccc"
       inkscape:connector-curvature="0"
       id="path3942"
       d="m 175.68093,956.1123 c -14.71251,-5.34854 -28.19161,-13.23616 -39.96875,-23.09375 -11.78285,9.83862 -25.26465,17.71606 -39.96875,23.0625 l -0.031,0.0312 z"
       style="fill:#00cb00;fill-opacity:1;stroke:#000000;stroke-opacity:1" />
    <path
       inkscape:connector-curvature="0"
       id="path3944"
       d="m 175.71865,956.07463 c -5.34937,-14.71212 -13.21701,-28.21065 -23.0625,-40 -5.12287,6.12293 -10.77918,11.78735 -16.90625,16.90625 11.77714,9.85758 25.25621,17.74522 39.96875,23.09375 z"
       style="fill:#00cb00;fill-opacity:1;stroke:#000000;stroke-opacity:1" />
    <path
       style="fill:#00cb00;fill-opacity:1;stroke:#000000;stroke-opacity:1"
       d="m 95.96233,956.32446 c 5.34854,-14.71251 13.23616,-28.19161 23.09375,-39.96875 -9.83862,-11.78285 -17.71606,-25.26465 -23.0625,-39.96875 l -0.0312,-0.031 z"
       id="path3946"
       inkscape:connector-curvature="0"
       sodipodi:nodetypes="ccccc" />
    <path
       style="fill:#00cb00;fill-opacity:1;stroke:#000000;stroke-opacity:1"
       d="m 96,956.36218 c 14.71212,-5.34937 28.21065,-13.21701 40,-23.0625 -6.12293,-5.12287 -11.78735,-10.77918 -16.90625,-16.90625 C 109.23617,928.17057 101.34853,941.64964 96,956.36218 z"
       id="path3948"
       inkscape:connector-curvature="0" />
    <path
       sodipodi:nodetypes="ccccc"
       inkscape:connector-curvature="0"
       id="e21"
       d="m 95.75015,876.60586 c 14.71251,5.34854 28.19161,13.23616 39.96875,23.09375 11.78285,-9.83862 25.26465,-17.71606 39.96875,-23.0625 l 0.031,-0.0312 z"
       style="fill:#00cb00;fill-opacity:1;stroke:#000000;stroke-opacity:1" />
    <path
       inkscape:connector-curvature="0"
       id="path3952"
       d="m 95.71243,876.64353 c 5.34937,14.71212 13.21701,28.21065 23.0625,40 5.12287,-6.12293 10.77918,-11.78735 16.90625,-16.90625 -11.77714,-9.85758 -25.25621,-17.74522 -39.96875,-23.09375 z"
       style="fill:#00cb00;fill-opacity:1;stroke:#000000;stroke-opacity:1" />
    <path
       style="fill:#ffe542;fill-opacity:1;stroke:#000000;stroke-opacity:1"
       d="m 175.46877,956.3937 c -5.34854,14.71251 -13.23616,28.19161 -23.09375,39.96875 9.83862,11.78285 17.71606,25.26465 23.0625,39.96875 l 0.0312,0.031 z"
       id="path3954"
       inkscape:connector-curvature="0"
       sodipodi:nodetypes="ccccc" />
    <path
       inkscape:connector-curvature="0"
       style="fill:#ffe542;fill-opacity:1;stroke:#000000;stroke-opacity:1"
       d="m 175.4311,956.35598 c -14.71212,5.34937 -28.21065,13.21701 -40,23.0625 6.12293,5.12287 11.78735,10.77918 16.90625,16.90625 9.85758,-11.77714 17.74522,-25.25621 23.09375,-39.96875 z"
       id="path3956" />
    <path
       style="fill:#ffe542;fill-opacity:1;stroke:#000000;stroke-opacity:1"
       d="m 135.43751,979.4562 c -6.12238,5.11553 -11.75496,10.78874 -16.875,16.90625 5.11528,6.12275 10.75705,11.78625 16.875,16.90625 6.13048,-5.1248 11.80952,-10.7772 16.9375,-16.90625 -5.12357,-6.13605 -10.81175,-11.77301 -16.9375,-16.90625 z"
       id="path3958"
       inkscape:connector-curvature="0" />
    <path
       sodipodi:nodetypes="ccccc"
       inkscape:connector-curvature="0"
       id="path3960"
       d="m 175.68093,1036.1123 c -14.71251,-5.3485 -28.19161,-13.2362 -39.96875,-23.0937 -11.78285,9.8386 -25.26465,17.716 -39.96875,23.0625 l -0.031,0.031 z"
       style="fill:#ffe542;fill-opacity:1;stroke:#000000;stroke-opacity:1" />
    <path
       inkscape:connector-curvature="0"
       id="path3962"
       d="m 175.71865,1036.0746 c -5.34937,-14.7121 -13.21701,-28.2106 -23.0625,-39.99997 -5.12287,6.12297 -10.77918,11.78737 -16.90625,16.90627 11.77714,9.8576 25.25621,17.7452 39.96875,23.0937 z"
       style="fill:#ffe542;fill-opacity:1;stroke:#000000;stroke-opacity:1" />
    <path
       style="fill:#ffe542;fill-opacity:1;stroke:#000000;stroke-opacity:1"
       d="m 95.96233,1036.3245 c 5.34854,-14.7125 13.23616,-28.1916 23.09375,-39.96879 -9.83862,-11.78285 -17.71606,-25.26465 -23.0625,-39.96875 l -0.0312,-0.031 z"
       id="path3964"
       inkscape:connector-curvature="0"
       sodipodi:nodetypes="ccccc" />
    <path
       style="fill:#ffe542;fill-opacity:1;stroke:#000000;stroke-opacity:1"
       d="m 96,1036.3622 c 14.71212,-5.3494 28.21065,-13.217 40,-23.0625 -6.12293,-5.1229 -11.78735,-10.7792 -16.90625,-16.90627 C 109.23617,1008.1706 101.34853,1021.6496 96,1036.3622 z"
       id="path3966"
       inkscape:connector-curvature="0" />
    <path
       sodipodi:nodetypes="ccccc"
       inkscape:connector-curvature="0"
       id="path3968"
       d="m 95.75015,956.60586 c 14.71251,5.34854 28.19161,13.23616 39.96875,23.09375 11.78285,-9.83862 25.26465,-17.71606 39.96875,-23.0625 l 0.031,-0.0312 z"
       style="fill:#ffe542;fill-opacity:1;stroke:#000000;stroke-opacity:1" />
    <path
       inkscape:connector-curvature="0"
       id="path3970"
       d="m 95.71243,956.64353 c 5.34937,14.71212 13.21701,28.21065 23.0625,40 5.12287,-6.12293 10.77918,-11.78735 16.90625,-16.90625 -11.77714,-9.85758 -25.25621,-17.74522 -39.96875,-23.09375 z"
       style="fill:#ffe542;fill-opacity:1;stroke:#000000;stroke-opacity:1" />
    <path
       sodipodi:nodetypes="ccccc"
       inkscape:connector-curvature="0"
       id="path3972"
       d="m 175.46877,956.3937 c -5.34854,14.71251 -13.23616,28.19161 -23.09375,39.96875 9.83862,11.78285 17.71606,25.26465 23.0625,39.96875 l 0.0312,0.031 z"
       style="fill:#ffe542;fill-opacity:1;stroke:#000000;stroke-opacity:1" />
    <path
       id="path3974"
       d="m 175.4311,956.35598 c -14.71212,5.34937 -28.21065,13.21701 -40,23.0625 6.12293,5.12287 11.78735,10.77918 16.90625,16.90625 9.85758,-11.77714 17.74522,-25.25621 23.09375,-39.96875 z"
       style="fill:#ffe542;fill-opacity:1;stroke:#000000;stroke-opacity:1"
       inkscape:connector-curvature="0" />
    <path
       inkscape:connector-curvature="0"
       id="c5"
       d="m 135.43751,979.4562 c -6.12238,5.11553 -11.75496,10.78874 -16.875,16.90625 5.11528,6.12275 10.75705,11.78625 16.875,16.90625 6.13048,-5.1248 11.80952,-10.7772 16.9375,-16.90625 -5.12357,-6.13605 -10.81175,-11.77301 -16.9375,-16.90625 z"
       style="fill:#ffe542;fill-opacity:1;stroke:#000000;stroke-opacity:1" />
    <path
       style="fill:#ffe542;fill-opacity:1;stroke:#000000;stroke-opacity:1"
       d="m 175.68093,1036.1123 c -14.71251,-5.3485 -28.19161,-13.2362 -39.96875,-23.0937 -11.78285,9.8386 -25.26465,17.716 -39.96875,23.0625 l -0.031,0.031 z"
       id="path3978"
       inkscape:connector-curvature="0"
       sodipodi:nodetypes="ccccc" />
    <path
       style="fill:#ffe542;fill-opacity:1;stroke:#000000;stroke-opacity:1"
       d="m 175.71865,1036.0746 c -5.34937,-14.7121 -13.21701,-28.2106 -23.0625,-39.99997 -5.12287,6.12297 -10.77918,11.78737 -16.90625,16.90627 11.77714,9.8576 25.25621,17.7452 39.96875,23.0937 z"
       id="path3980"
       inkscape:connector-curvature="0" />
    <path
       sodipodi:nodetypes="ccccc"
       inkscape:connector-curvature="0"
       id="path3982"
       d="m 95.96233,1036.3245 c 5.34854,-14.7125 13.23616,-28.1916 23.09375,-39.96879 -9.83862,-11.78285 -17.71606,-25.26465 -23.0625,-39.96875 l -0.0312,-0.031 z"
       style="fill:#ffe542;fill-opacity:1;stroke:#000000;stroke-opacity:1" />
    <path
       inkscape:connector-curvature="0"
       id="path3984"
       d="m 96,1036.3622 c 14.71212,-5.3494 28.21065,-13.217 40,-23.0625 -6.12293,-5.1229 -11.78735,-10.7792 -16.90625,-16.90627 C 109.23617,1008.1706 101.34853,1021.6496 96,1036.3622 z"
       style="fill:#ffe542;fill-opacity:1;stroke:#000000;stroke-opacity:1" />
    <path
       style="fill:#ffe542;fill-opacity:1;stroke:#000000;stroke-opacity:1"
       d="m 95.75015,956.60586 c 14.71251,5.34854 28.19161,13.23616 39.96875,23.09375 11.78285,-9.83862 25.26465,-17.71606 39.96875,-23.0625 l 0.031,-0.0312 z"
       id="path3986"
       inkscape:connector-curvature="0"
       sodipodi:nodetypes="ccccc" />
    <path
       style="fill:#ffe542;fill-opacity:1;stroke:#000000;stroke-opacity:1"
       d="m 95.71243,956.64353 c 5.34937,14.71212 13.21701,28.21065 23.0625,40 5.12287,-6.12293 10.77918,-11.78735 16.90625,-16.90625 -11.77714,-9.85758 -25.25621,-17.74522 -39.96875,-23.09375 z"
       id="path3988"
       inkscape:connector-curvature="0" />
    <path
       sodipodi:nodetypes="ccccc"
       inkscape:connector-curvature="0"
       id="path3990"
       d="m 175.46877,796.39368 c -5.34854,14.71251 -13.23616,28.19161 -23.09375,39.96875 9.83862,11.78285 17.71606,25.26465 23.0625,39.96875 l 0.0312,0.031 z"
       style="fill:#f2f2f2;fill-opacity:1;stroke:#000000;stroke-opacity:1" />
    <path
       id="path3992"
       d="m 175.4311,796.35596 c -14.71212,5.34937 -28.21065,13.21701 -40,23.0625 6.12293,5.12287 11.78735,10.77918 16.90625,16.90625 9.85758,-11.77714 17.74522,-25.25621 23.09375,-39.96875 z"
       style="fill:#f2f2f2;fill-opacity:1;stroke:#000000;stroke-opacity:1"
       inkscape:connector-curvature="0" />
    <path
       inkscape:connector-curvature="0"
       id="path3994"
       d="m 135.43751,819.45618 c -6.12238,5.11553 -11.75496,10.78874 -16.875,16.90625 5.11528,6.12275 10.75705,11.78625 16.875,16.90625 6.13048,-5.1248 11.80952,-10.7772 16.9375,-16.90625 -5.12357,-6.13605 -10.81175,-11.77301 -16.9375,-16.90625 z"
       style="fill:#f2f2f2;fill-opacity:1;stroke:#000000;stroke-opacity:1" />
    <path
       style="fill:#f2f2f2;fill-opacity:1;stroke:#000000;stroke-opacity:1"
       d="m 175.68093,876.11228 c -14.71251,-5.3485 -28.19161,-13.2362 -39.96875,-23.0937 -11.78285,9.8386 -25.26465,17.716 -39.96875,23.0625 l -0.031,0.031 z"
       id="path3996"
       inkscape:connector-curvature="0"
       sodipodi:nodetypes="ccccc" />
    <path
       style="fill:#f2f2f2;fill-opacity:1;stroke:#000000;stroke-opacity:1"
       d="m 175.71865,876.07458 c -5.34937,-14.7121 -13.21701,-28.2106 -23.0625,-39.99997 -5.12287,6.12297 -10.77918,11.78737 -16.90625,16.90627 11.77714,9.8576 25.25621,17.7452 39.96875,23.0937 z"
       id="path3998"
       inkscape:connector-curvature="0" />
    <path
       sodipodi:nodetypes="ccccc"
       inkscape:connector-curvature="0"
       id="path4000"
       d="m 95.96233,876.32448 c 5.34854,-14.7125 13.23616,-28.1916 23.09375,-39.96879 -9.83862,-11.78285 -17.71606,-25.26465 -23.0625,-39.96875 l -0.0312,-0.031 z"
       style="fill:#f2f2f2;fill-opacity:1;stroke:#000000;stroke-opacity:1" />
    <path
       inkscape:connector-curvature="0"
       id="path4002"
       d="m 96,876.36218 c 14.71212,-5.3494 28.21065,-13.217 40,-23.0625 -6.12293,-5.1229 -11.78735,-10.7792 -16.90625,-16.90627 C 109.23617,848.17058 101.34853,861.64958 96,876.36218 z"
       style="fill:#f2f2f2;fill-opacity:1;stroke:#000000;stroke-opacity:1" />
    <path
       style="fill:#f2f2f2;fill-opacity:1;stroke:#000000;stroke-opacity:1"
       d="m 95.75015,796.60584 c 14.71251,5.34854 28.19161,13.23616 39.96875,23.09375 11.78285,-9.83862 25.26465,-17.71606 39.96875,-23.0625 l 0.031,-0.0312 z"
       id="path4004"
       inkscape:connector-curvature="0"
       sodipodi:nodetypes="ccccc" />
    <path
       style="fill:#f2f2f2;fill-opacity:1;stroke:#000000;stroke-opacity:1"
       d="m 95.71243,796.64351 c 5.34937,14.71212 13.21701,28.21065 23.0625,40 5.12287,-6.12293 10.77918,-11.78735 16.90625,-16.90625 -11.77714,-9.85758 -25.25621,-17.74522 -39.96875,-23.09375 z"
       id="path4006"
       inkscape:connector-curvature="0" />
    <path
       style="fill:#f2f2f2;fill-opacity:1;stroke:#000000;stroke-opacity:1"
       d="m 175.46877,796.39368 c -5.34854,14.71251 -13.23616,28.19161 -23.09375,39.96875 9.83862,11.78285 17.71606,25.26465 23.0625,39.96875 l 0.0312,0.031 z"
       id="e11"
       inkscape:connector-curvature="0"
       sodipodi:nodetypes="ccccc" />
    <path
       inkscape:connector-curvature="0"
       style="fill:#f2f2f2;fill-opacity:1;stroke:#000000;stroke-opacity:1"
       d="m 175.4311,796.35596 c -14.71212,5.34937 -28.21065,13.21701 -40,23.0625 6.12293,5.12287 11.78735,10.77918 16.90625,16.90625 9.85758,-11.77714 17.74522,-25.25621 23.09375,-39.96875 z"
       id="w1" />
    <path
       style="fill:#f2f2f2;fill-opacity:1;stroke:#000000;stroke-opacity:1"
       d="m 135.43751,819.45618 c -6.12238,5.11553 -11.75496,10.78874 -16.875,16.90625 5.11528,6.12275 10.75705,11.78625 16.875,16.90625 6.13048,-5.1248 11.80952,-10.7772 16.9375,-16.90625 -5.12357,-6.13605 -10.81175,-11.77301 -16.9375,-16.90625 z"
       id="c0"
       inkscape:connector-curvature="0" />
    <path
       sodipodi:nodetypes="ccccc"
       inkscape:connector-curvature="0"
       id="e20"
       d="m 175.68093,876.11228 c -14.71251,-5.3485 -28.19161,-13.2362 -39.96875,-23.0937 -11.78285,9.8386 -25.26465,17.716 -39.96875,23.0625 l -0.031,0.031 z"
       style="fill:#f2f2f2;fill-opacity:1;stroke:#000000;stroke-opacity:1" />
    <path
       inkscape:connector-curvature="0"
       id="w2"
       d="m 175.71865,876.07458 c -5.34937,-14.7121 -13.21701,-28.2106 -23.0625,-39.99997 -5.12287,6.12297 -10.77918,11.78737 -16.90625,16.90627 11.77714,9.8576 25.25621,17.7452 39.96875,23.0937 z"
       style="fill:#f2f2f2;fill-opacity:1;stroke:#000000;stroke-opacity:1" />
    <path
       style="fill:#f2f2f2;fill-opacity:1;stroke:#000000;stroke-opacity:1"
       d="m 95.96233,876.32448 c 5.34854,-14.7125 13.23616,-28.1916 23.09375,-39.96879 -9.83862,-11.78285 -17.71606,-25.26465 -23.0625,-39.96875 l -0.0312,-0.031 z"
       id="e31"
       inkscape:connector-curvature="0"
       sodipodi:nodetypes="ccccc" />
    <path
       style="fill:#f2f2f2;fill-opacity:1;stroke:#000000;stroke-opacity:1"
       d="m 96,876.36218 c 14.71212,-5.3494 28.21065,-13.217 40,-23.0625 -6.12293,-5.1229 -11.78735,-10.7792 -16.90625,-16.90627 C 109.23617,848.17058 101.34853,861.64958 96,876.36218 z"
       id="w3"
       inkscape:connector-curvature="0" />
    <path
       sodipodi:nodetypes="ccccc"
       inkscape:connector-curvature="0"
       id="e00"
       d="m 95.75015,796.60584 c 14.71251,5.34854 28.19161,13.23616 39.96875,23.09375 11.78285,-9.83862 25.26465,-17.71606 39.96875,-23.0625 l 0.031,-0.0312 z"
       style="fill:#f2f2f2;fill-opacity:1;stroke:#000000;stroke-opacity:1" />
    <path
       inkscape:connector-curvature="0"
       id="w0"
       d="m 95.71243,796.64351 c 5.34937,14.71212 13.21701,28.21065 23.0625,40 5.12287,-6.12293 10.77918,-11.78735 16.90625,-16.90625 -11.77714,-9.85758 -25.25621,-17.74522 -39.96875,-23.09375 z"
       style="fill:#f2f2f2;fill-opacity:1;stroke:#000000;stroke-opacity:1" />
    <path
       style="fill:#ff0000;fill-opacity:1;stroke:#000000;stroke-opacity:1"
       d="m 255.46877,876.39368 c -5.34854,14.71251 -13.23616,28.19161 -23.09375,39.96875 9.83862,11.78285 17.71606,25.26465 23.0625,39.96875 l 0.0312,0.031 z"
       id="path4026"
       inkscape:connector-curvature="0"
       sodipodi:nodetypes="ccccc" />
    <path
       inkscape:connector-curvature="0"
       style="fill:#ff0000;fill-opacity:1;stroke:#000000;stroke-opacity:1"
       d="m 255.4311,876.35596 c -14.71212,5.34937 -28.21065,13.21701 -40,23.0625 6.12293,5.12287 11.78735,10.77918 16.90625,16.90625 9.85758,-11.77714 17.74522,-25.25621 23.09375,-39.96875 z"
       id="path4028" />
    <path
       style="fill:#ff0000;fill-opacity:1;stroke:#000000;stroke-opacity:1"
       d="m 215.43751,899.45618 c -6.12238,5.11553 -11.75496,10.78874 -16.875,16.90625 5.11528,6.12275 10.75705,11.78625 16.875,16.90625 6.13048,-5.1248 11.80952,-10.7772 16.9375,-16.90625 -5.12357,-6.13605 -10.81175,-11.77301 -16.9375,-16.90625 z"
       id="path4030"
       inkscape:connector-curvature="0" />
    <path
       sodipodi:nodetypes="ccccc"
       inkscape:connector-curvature="0"
       id="path4032"
       d="m 255.68093,956.11228 c -14.71251,-5.3485 -28.19161,-13.2362 -39.96875,-23.0937 -11.78285,9.8386 -25.26465,17.716 -39.96875,23.0625 l -0.031,0.031 z"
       style="fill:#ff0000;fill-opacity:1;stroke:#000000;stroke-opacity:1" />
    <path
       inkscape:connector-curvature="0"
       id="path4034"
       d="m 255.71865,956.07458 c -5.34937,-14.7121 -13.21701,-28.2106 -23.0625,-39.99997 -5.12287,6.12297 -10.77918,11.78737 -16.90625,16.90627 11.77714,9.8576 25.25621,17.7452 39.96875,23.0937 z"
       style="fill:#ff0000;fill-opacity:1;stroke:#000000;stroke-opacity:1" />
    <path
       style="fill:#ff0000;fill-opacity:1;stroke:#000000;stroke-opacity:1"
       d="m 175.96233,956.32448 c 5.34854,-14.7125 13.23616,-28.1916 23.09375,-39.96879 -9.83862,-11.78285 -17.71606,-25.26465 -23.0625,-39.96875 l -0.0312,-0.031 z"
       id="path4036"
       inkscape:connector-curvature="0"
       sodipodi:nodetypes="ccccc" />
    <path
       style="fill:#ff0000;fill-opacity:1;stroke:#000000;stroke-opacity:1"
       d="m 176,956.36218 c 14.71212,-5.3494 28.21065,-13.217 40,-23.0625 -6.12293,-5.1229 -11.78735,-10.7792 -16.90625,-16.90627 -9.85758,11.77717 -17.74522,25.25617 -23.09375,39.96877 z"
       id="path4038"
       inkscape:connector-curvature="0" />
    <path
       sodipodi:nodetypes="ccccc"
       inkscape:connector-curvature="0"
       id="path4040"
       d="m 175.75015,876.60584 c 14.71251,5.34854 28.19161,13.23616 39.96875,23.09375 11.78285,-9.83862 25.26465,-17.71606 39.96875,-23.0625 l 0.031,-0.0312 z"
       style="fill:#ff0000;fill-opacity:1;stroke:#000000;stroke-opacity:1" />
    <path
       inkscape:connector-curvature="0"
       id="path4042"
       d="m 175.71243,876.64351 c 5.34937,14.71212 13.21701,28.21065 23.0625,40 5.12287,-6.12293 10.77918,-11.78735 16.90625,-16.90625 -11.77714,-9.85758 -25.25621,-17.74522 -39.96875,-23.09375 z"
       style="fill:#ff0000;fill-opacity:1;stroke:#000000;stroke-opacity:1" />
    <path
       sodipodi:nodetypes="ccccc"
       inkscape:connector-curvature="0"
       id="path4044"
       d="m 255.46877,876.39368 c -5.34854,14.71251 -13.23616,28.19161 -23.09375,39.96875 9.83862,11.78285 17.71606,25.26465 23.0625,39.96875 l 0.0312,0.031 z"
       style="fill:#ff0000;fill-opacity:1;stroke:#000000;stroke-opacity:1" />
    <path
       id="path4046"
       d="m 255.4311,876.35596 c -14.71212,5.34937 -28.21065,13.21701 -40,23.0625 6.12293,5.12287 11.78735,10.77918 16.90625,16.90625 9.85758,-11.77714 17.74522,-25.25621 23.09375,-39.96875 z"
       style="fill:#ff0000;fill-opacity:1;stroke:#000000;stroke-opacity:1"
       inkscape:connector-curvature="0" />
    <path
       inkscape:connector-curvature="0"
       id="c3"
       d="m 215.43751,899.45618 c -6.12238,5.11553 -11.75496,10.78874 -16.875,16.90625 5.11528,6.12275 10.75705,11.78625 16.875,16.90625 6.13048,-5.1248 11.80952,-10.7772 16.9375,-16.90625 -5.12357,-6.13605 -10.81175,-11.77301 -16.9375,-16.90625 z"
       style="fill:#ff0000;fill-opacity:1;stroke:#000000;stroke-opacity:1" />
    <path
       style="fill:#ff0000;fill-opacity:1;stroke:#000000;stroke-opacity:1"
       d="m 255.68093,956.11228 c -14.71251,-5.3485 -28.19161,-13.2362 -39.96875,-23.0937 -11.78285,9.8386 -25.26465,17.716 -39.96875,23.0625 l -0.031,0.031 z"
       id="path4050"
       inkscape:connector-curvature="0"
       sodipodi:nodetypes="ccccc" />
    <path
       style="fill:#ff0000;fill-opacity:1;stroke:#000000;stroke-opacity:1"
       d="m 255.71865,956.07458 c -5.34937,-14.7121 -13.21701,-28.2106 -23.0625,-39.99997 -5.12287,6.12297 -10.77918,11.78737 -16.90625,16.90627 11.77714,9.8576 25.25621,17.7452 39.96875,23.0937 z"
       id="path4052"
       inkscape:connector-curvature="0" />
    <path
       sodipodi:nodetypes="ccccc"
       inkscape:connector-curvature="0"
       id="path4054"
       d="m 175.96233,956.32448 c 5.34854,-14.7125 13.23616,-28.1916 23.09375,-39.96879 -9.83862,-11.78285 -17.71606,-25.26465 -23.0625,-39.96875 l -0.0312,-0.031 z"
       style="fill:#ff0000;fill-opacity:1;stroke:#000000;stroke-opacity:1" />
    <path
       inkscape:connector-curvature="0"
       id="path4056"
       d="m 176,956.36218 c 14.71212,-5.3494 28.21065,-13.217 40,-23.0625 -6.12293,-5.1229 -11.78735,-10.7792 -16.90625,-16.90627 -9.85758,11.77717 -17.74522,25.25617 -23.09375,39.96877 z"
       style="fill:#ff0000;fill-opacity:1;stroke:#000000;stroke-opacity:1" />
    <path
       style="fill:#ff0000;fill-opacity:1;stroke:#000000;stroke-opacity:1"
       d="m 175.75015,876.60584 c 14.71251,5.34854 28.19161,13.23616 39.96875,23.09375 11.78285,-9.83862 25.26465,-17.71606 39.96875,-23.0625 l 0.031,-0.0312 z"
       id="e10"
       inkscape:connector-curvature="0"
       sodipodi:nodetypes="ccccc" />
    <path
       style="fill:#ff0000;fill-opacity:1;stroke:#000000;stroke-opacity:1"
       d="m 175.71243,876.64351 c 5.34937,14.71212 13.21701,28.21065 23.0625,40 5.12287,-6.12293 10.77918,-11.78735 16.90625,-16.90625 -11.77714,-9.85758 -25.25621,-17.74522 -39.96875,-23.09375 z"
       id="path4060"
       inkscape:connector-curvature="0" />
    <path
       sodipodi:nodetypes="ccccc"
       inkscape:connector-curvature="0"
       id="path4062"
       d="m 335.46877,876.39368 c -5.34854,14.71251 -13.23616,28.19161 -23.09375,39.96875 9.83862,11.78285 17.71606,25.26465 23.0625,39.96875 l 0.0312,0.031 z"
       style="fill:#4378ff;fill-opacity:1;stroke:#000000;stroke-opacity:1" />
    <path
       id="path4064"
       d="m 335.4311,876.35596 c -14.71212,5.34937 -28.21065,13.21701 -40,23.0625 6.12293,5.12287 11.78735,10.77918 16.90625,16.90625 9.85758,-11.77714 17.74522,-25.25621 23.09375,-39.96875 z"
       style="fill:#4378ff;fill-opacity:1;stroke:#000000;stroke-opacity:1"
       inkscape:connector-curvature="0" />
    <path
       inkscape:connector-curvature="0"
       id="path4066"
       d="m 295.43751,899.45618 c -6.12238,5.11553 -11.75496,10.78874 -16.875,16.90625 5.11528,6.12275 10.75705,11.78625 16.875,16.90625 6.13048,-5.1248 11.80952,-10.7772 16.9375,-16.90625 -5.12357,-6.13605 -10.81175,-11.77301 -16.9375,-16.90625 z"
       style="fill:#4378ff;fill-opacity:1;stroke:#000000;stroke-opacity:1" />
    <path
       style="fill:#4378ff;fill-opacity:1;stroke:#000000;stroke-opacity:1"
       d="m 335.68093,956.11228 c -14.71251,-5.3485 -28.19161,-13.2362 -39.96875,-23.0937 -11.78285,9.8386 -25.26465,17.716 -39.96875,23.0625 l -0.031,0.031 z"
       id="path4068"
       inkscape:connector-curvature="0"
       sodipodi:nodetypes="ccccc" />
    <path
       style="fill:#4378ff;fill-opacity:1;stroke:#000000;stroke-opacity:1"
       d="m 335.71865,956.07458 c -5.34937,-14.7121 -13.21701,-28.2106 -23.0625,-39.99997 -5.12287,6.12297 -10.77918,11.78737 -16.90625,16.90627 11.77714,9.8576 25.25621,17.7452 39.96875,23.0937 z"
       id="path4070"
       inkscape:connector-curvature="0" />
    <path
       sodipodi:nodetypes="ccccc"
       inkscape:connector-curvature="0"
       id="path4072"
       d="m 255.96233,956.32448 c 5.34854,-14.7125 13.23616,-28.1916 23.09375,-39.96879 -9.83862,-11.78285 -17.71606,-25.26465 -23.0625,-39.96875 l -0.0312,-0.031 z"
       style="fill:#4378ff;fill-opacity:1;stroke:#000000;stroke-opacity:1" />
    <path
       inkscape:connector-curvature="0"
       id="path4074"
       d="m 256,956.36218 c 14.71212,-5.3494 28.21065,-13.217 40,-23.0625 -6.12293,-5.1229 -11.78735,-10.7792 -16.90625,-16.90627 -9.85758,11.77717 -17.74522,25.25617 -23.09375,39.96877 z"
       style="fill:#4378ff;fill-opacity:1;stroke:#000000;stroke-opacity:1" />
    <path
       style="fill:#4378ff;fill-opacity:1;stroke:#000000;stroke-opacity:1"
       d="m 255.75015,876.60584 c 14.71251,5.34854 28.19161,13.23616 39.96875,23.09375 11.78285,-9.83862 25.26465,-17.71606 39.96875,-23.0625 l 0.031,-0.0312 z"
       id="path4076"
       inkscape:connector-curvature="0"
       sodipodi:nodetypes="ccccc" />
    <path
       style="fill:#4378ff;fill-opacity:1;stroke:#000000;stroke-opacity:1"
       d="m 255.71243,876.64351 c 5.34937,14.71212 13.21701,28.21065 23.0625,40 5.12287,-6.12293 10.77918,-11.78735 16.90625,-16.90625 -11.77714,-9.85758 -25.25621,-17.74522 -39.96875,-23.09375 z"
       id="path4078"
       inkscape:connector-curvature="0" />
    <path
       style="fill:#4378ff;fill-opacity:1;stroke:#000000;stroke-opacity:1"
       d="m 335.46877,876.39368 c -5.34854,14.71251 -13.23616,28.19161 -23.09375,39.96875 9.83862,11.78285 17.71606,25.26465 23.0625,39.96875 l 0.0312,0.031 z"
       id="path4080"
       inkscape:connector-curvature="0"
       sodipodi:nodetypes="ccccc" />
    <path
       inkscape:connector-curvature="0"
       style="fill:#4378ff;fill-opacity:1;stroke:#000000;stroke-opacity:1"
       d="m 335.4311,876.35596 c -14.71212,5.34937 -28.21065,13.21701 -40,23.0625 6.12293,5.12287 11.78735,10.77918 16.90625,16.90625 9.85758,-11.77714 17.74522,-25.25621 23.09375,-39.96875 z"
       id="path4082" />
    <path
       style="fill:#4378ff;fill-opacity:1;stroke:#000000;stroke-opacity:1"
       d="m 295.43751,899.45618 c -6.12238,5.11553 -11.75496,10.78874 -16.875,16.90625 5.11528,6.12275 10.75705,11.78625 16.875,16.90625 6.13048,-5.1248 11.80952,-10.7772 16.9375,-16.90625 -5.12357,-6.13605 -10.81175,-11.77301 -16.9375,-16.90625 z"
       id="c4"
       inkscape:connector-curvature="0" />
    <path
       sodipodi:nodetypes="ccccc"
       inkscape:connector-curvature="0"
       id="path4086"
       d="m 335.68093,956.11228 c -14.71251,-5.3485 -28.19161,-13.2362 -39.96875,-23.0937 -11.78285,9.8386 -25.26465,17.716 -39.96875,23.0625 l -0.031,0.031 z"
       style="fill:#4378ff;fill-opacity:1;stroke:#000000;stroke-opacity:1" />
    <path
       inkscape:connector-curvature="0"
       id="path4088"
       d="m 335.71865,956.07458 c -5.34937,-14.7121 -13.21701,-28.2106 -23.0625,-39.99997 -5.12287,6.12297 -10.77918,11.78737 -16.90625,16.90627 11.77714,9.8576 25.25621,17.7452 39.96875,23.0937 z"
       style="fill:#4378ff;fill-opacity:1;stroke:#000000;stroke-opacity:1" />
    <path
       style="fill:#4378ff;fill-opacity:1;stroke:#000000;stroke-opacity:1"
       d="m 255.96233,956.32448 c 5.34854,-14.7125 13.23616,-28.1916 23.09375,-39.96879 -9.83862,-11.78285 -17.71606,-25.26465 -23.0625,-39.96875 l -0.0312,-0.031 z"
       id="path4090"
       inkscape:connector-curvature="0"
       sodipodi:nodetypes="ccccc" />
    <path
       style="fill:#4378ff;fill-opacity:1;stroke:#000000;stroke-opacity:1"
       d="m 256,956.36218 c 14.71212,-5.3494 28.21065,-13.217 40,-23.0625 -6.12293,-5.1229 -11.78735,-10.7792 -16.90625,-16.90627 -9.85758,11.77717 -17.74522,25.25617 -23.09375,39.96877 z"
       id="path4092"
       inkscape:connector-curvature="0" />
    <path
       sodipodi:nodetypes="ccccc"
       inkscape:connector-curvature="0"
       id="e01"
       d="m 255.75015,876.60584 c 14.71251,5.34854 28.19161,13.23616 39.96875,23.09375 11.78285,-9.83862 25.26465,-17.71606 39.96875,-23.0625 l 0.031,-0.0312 z"
       style="fill:#4378ff;fill-opacity:1;stroke:#000000;stroke-opacity:1" />
    <path
       inkscape:connector-curvature="0"
       id="path4096"
       d="m 255.71243,876.64351 c 5.34937,14.71212 13.21701,28.21065 23.0625,40 5.12287,-6.12293 10.77918,-11.78735 16.90625,-16.90625 -11.77714,-9.85758 -25.25621,-17.74522 -39.96875,-23.09375 z"
       style="fill:#4378ff;fill-opacity:1;stroke:#000000;stroke-opacity:1" />
  </g>
</svg>
